# xmcd
#
# Track frame offsets:
#	150
#	13624
#	28202
#	40619
#	54337
#	67379
#	80558
#	93798
#	107702
#	119660
#	131919
#	145550
#	158029
#	171479
#	184642
#	197870
#	211592
#	221982
#	233350
#	248515
#	259817
#	268753
#	282935
#
# Disc length: 3875 seconds
# Revision: 0
# Processed by: cddbd v1.5.2PL0 Copyright (c) Steve Scherf et al.
# Submitted via: dBpowerAMP V12.0
#
DISCID=4f0f2117
DTITLE=Various Artist - We're Sisters Under The Skin: Female Blues and Boogie Woogie (1944-1949)
DYEAR=2015
DGENRE=Blues
TTITLE0=Christine Chatman - Naptown Boogie
TTITLE1=Christine Chatman - Bootin' the Boogie
TTITLE2=Christine Chatman - The Boogie Woogie Girl
TTITLE3=Christine Chatman - Hurry Hurry
TTITLE4=Viola Wells - Bye Bye Baby
TTITLE5=Viola Wells - My Lucky Day
TTITLE6=Viola Wells - Hey Lawdy Mama
TTITLE7=Viola Wells - Groovin' the Blues
TTITLE8=Viola Wells - Blues In My Heart
TTITLE9=Viola Wells - Sugar
TTITLE10=Viola Wells - Down Hearted Blues
TTITLE11=Viola Wells - Sweet Man
TTITLE12=Viola Wells - He May Be Your Man
TTITLE13=Viola Wells - We're Sisters Under the Skin
TTITLE14=Viola Wells - The Night Before Judgement Day
TTITLE15=Viola Wells - I Fell For You
TTITLE16=Irene Williams - Gulf Coast Blues
TTITLE17=Irene Williams - Baby, Won't You Please Come Home
TTITLE18=Ann Lewis - Fish Out of the Water
TTITLE19=Ann Lewis - Jailhouse Blues
TTITLE20=Ruby Smith - Nobody Knows You When You're Down and Out
TTITLE21=Ruby Smith - Back Water Blues
TTITLE22=Ruby Smith - Hit That Jive, Jack
EXTD=
EXTT0=
EXTT1=
EXTT2=
EXTT3=
EXTT4=
EXTT5=
EXTT6=
EXTT7=
EXTT8=
EXTT9=
EXTT10=
EXTT11=
EXTT12=
EXTT13=
EXTT14=
EXTT15=
EXTT16=
EXTT17=
EXTT18=
EXTT19=
EXTT20=
EXTT21=
EXTT22=
PLAYORDER=
